<?xml version="1.0" encoding="UTF-8" standalone="no"?>
<!DOCTYPE svg PUBLIC "-//W3C//DTD SVG 20010904//EN"
              "http://www.w3.org/TR/2001/REC-SVG-20010904/DTD/svg10.dtd">

<svg xmlns="http://www.w3.org/2000/svg"
     width="0.213333in" height="0.213333in"
     viewBox="0 0 64 64">
  <path id="Unnamed"
        fill="none" stroke="white" stroke-width="4"
        d="M 19.50,14.88
           C 19.50,14.88 22.25,13.38 22.25,13.38
             22.25,13.38 25.00,12.25 25.00,12.25
             25.00,12.25 27.62,11.88 28.12,11.75
             28.62,11.62 31.38,12.12 31.50,12.12
             31.62,12.12 33.50,12.47 34.00,12.59
             34.50,12.72 35.00,12.91 35.75,13.16
             36.50,13.41 37.28,14.34 37.66,14.72
             38.03,15.09 39.09,16.62 39.09,16.88
             39.09,17.12 39.31,18.44 39.44,19.31
             39.56,20.19 39.22,22.34 39.22,22.47
             39.22,22.59 38.22,24.41 38.22,24.53
             38.22,24.66 37.00,25.72 36.62,26.34
             36.25,26.97 35.50,27.31 34.75,28.31
             34.00,29.31 32.94,29.81 32.44,30.31
             31.94,30.81 30.94,31.78 30.44,32.16
             29.94,32.53 29.28,33.28 28.91,33.66
             28.53,34.03 28.38,35.44 28.38,35.56
             28.38,35.69 28.34,37.34 28.34,37.34M 30.38,48.19
           C 30.38,48.19 28.38,47.38 28.38,47.38
             28.38,47.38 26.31,48.25 26.31,48.25
             26.31,48.25 26.38,50.59 26.38,50.59
             26.38,50.59 28.53,51.56 28.53,51.56
             28.53,51.56 30.50,50.66 30.50,50.66
             30.50,50.66 30.47,48.19 30.47,48.19" />
</svg>
